<?xml version="1.0" encoding="UTF-8"?>
<svg xmlns="http://www.w3.org/2000/svg" xmlns:xlink="http://www.w3.org/1999/xlink" width="75pt" height="58pt" viewBox="0 0 75 58" version="1.1">
<g id="surface1">
<path style=" stroke:none;fill-rule:evenodd;fill:rgb(0%,68.199158%,93.699646%);fill-opacity:1;" d="M 10.824219 23.613281 C 13.875 23.613281 16.347656 26.058594 16.347656 29.078125 C 16.347656 31.960938 14.09375 34.320313 11.234375 34.527344 L 11.234375 30.515625 C 11.867188 30.335938 12.332031 29.761719 12.332031 29.078125 C 12.332031 28.253906 11.65625 27.585938 10.824219 27.585938 C 9.992188 27.585938 9.316406 28.253906 9.316406 29.078125 C 9.316406 29.761719 9.78125 30.335938 10.414063 30.515625 L 10.414063 34.527344 C 7.554688 34.320313 5.300781 31.960938 5.300781 29.078125 C 5.300781 26.058594 7.773438 23.613281 10.824219 23.613281 "/>
<path style=" stroke:none;fill-rule:nonzero;fill:rgb(13.699341%,12.199402%,12.5%);fill-opacity:1;" d="M 18.902344 33.148438 L 18.902344 31.484375 L 18.285156 31.484375 L 18.285156 31.261719 L 19.773438 31.261719 L 19.773438 31.484375 L 19.152344 31.484375 L 19.152344 33.148438 Z M 20.289063 33.148438 L 20.289063 31.261719 L 20.539063 31.261719 L 20.539063 32.035156 L 21.511719 32.035156 L 21.511719 31.261719 L 21.761719 31.261719 L 21.761719 33.148438 L 21.511719 33.148438 L 21.511719 32.257813 L 20.539063 32.257813 L 20.539063 33.148438 Z M 22.4375 33.148438 L 22.4375 31.261719 L 23.789063 31.261719 L 23.789063 31.484375 L 22.683594 31.484375 L 22.683594 32.0625 L 23.71875 32.0625 L 23.71875 32.28125 L 22.683594 32.28125 L 22.683594 32.925781 L 23.835938 32.925781 L 23.835938 33.148438 Z M 25.152344 33.148438 L 25.152344 31.261719 L 25.855469 31.261719 C 25.996094 31.261719 26.109375 31.28125 26.199219 31.316406 C 26.285156 31.355469 26.351563 31.414063 26.402344 31.492188 C 26.449219 31.574219 26.476563 31.65625 26.476563 31.742188 C 26.476563 31.824219 26.453125 31.898438 26.410156 31.972656 C 26.367188 32.042969 26.300781 32.101563 26.214844 32.144531 C 26.328125 32.175781 26.414063 32.234375 26.476563 32.316406 C 26.535156 32.398438 26.566406 32.492188 26.566406 32.601563 C 26.566406 32.6875 26.546875 32.769531 26.511719 32.847656 C 26.472656 32.921875 26.425781 32.980469 26.375 33.023438 C 26.316406 33.0625 26.25 33.097656 26.167969 33.117188 C 26.085938 33.136719 25.984375 33.148438 25.867188 33.148438 Z M 25.398438 32.054688 L 25.804688 32.054688 C 25.914063 32.054688 25.992188 32.046875 26.042969 32.03125 C 26.101563 32.011719 26.152344 31.980469 26.183594 31.9375 C 26.214844 31.894531 26.230469 31.839844 26.230469 31.773438 C 26.230469 31.710938 26.214844 31.65625 26.1875 31.609375 C 26.15625 31.558594 26.113281 31.527344 26.058594 31.511719 C 26.003906 31.492188 25.90625 31.484375 25.773438 31.484375 L 25.398438 31.484375 Z M 25.398438 32.925781 L 25.867188 32.925781 C 25.945313 32.925781 26.003906 32.921875 26.035156 32.914063 C 26.089844 32.90625 26.140625 32.890625 26.179688 32.863281 C 26.214844 32.839844 26.246094 32.804688 26.273438 32.761719 C 26.296875 32.714844 26.308594 32.660156 26.308594 32.601563 C 26.308594 32.53125 26.289063 32.46875 26.257813 32.417969 C 26.21875 32.367188 26.171875 32.328125 26.105469 32.308594 C 26.042969 32.285156 25.953125 32.277344 25.832031 32.277344 L 25.398438 32.277344 Z M 26.957031 33.148438 L 27.679688 31.261719 L 27.945313 31.261719 L 28.714844 33.148438 L 28.429688 33.148438 L 28.210938 32.574219 L 27.425781 32.574219 L 27.222656 33.148438 Z M 27.5 32.371094 L 28.132813 32.371094 L 27.9375 31.851563 C 27.878906 31.691406 27.835938 31.5625 27.804688 31.460938 C 27.78125 31.582031 27.75 31.699219 27.707031 31.820313 Z M 29.164063 33.148438 L 29.164063 31.261719 L 29.421875 31.261719 L 30.40625 32.742188 L 30.40625 31.261719 L 30.640625 31.261719 L 30.640625 33.148438 L 30.386719 33.148438 L 29.402344 31.664063 L 29.402344 33.148438 Z M 31.304688 33.148438 L 31.304688 31.261719 L 31.554688 31.261719 L 31.554688 32.195313 L 32.484375 31.261719 L 32.820313 31.261719 L 32.035156 32.023438 L 32.855469 33.148438 L 32.527344 33.148438 L 31.859375 32.191406 L 31.554688 32.492188 L 31.554688 33.148438 Z M 33.324219 33.148438 L 33.324219 31.261719 L 34.679688 31.261719 L 34.679688 31.484375 L 33.570313 31.484375 L 33.570313 32.0625 L 34.609375 32.0625 L 34.609375 32.28125 L 33.570313 32.28125 L 33.570313 32.925781 L 34.722656 32.925781 L 34.722656 33.148438 Z M 35.328125 33.148438 L 35.328125 31.261719 L 36.15625 31.261719 C 36.324219 31.261719 36.453125 31.277344 36.539063 31.3125 C 36.625 31.34375 36.695313 31.40625 36.746094 31.492188 C 36.796875 31.578125 36.824219 31.671875 36.824219 31.777344 C 36.824219 31.910156 36.78125 32.023438 36.695313 32.113281 C 36.609375 32.207031 36.476563 32.265625 36.296875 32.289063 C 36.363281 32.320313 36.410156 32.351563 36.445313 32.382813 C 36.519531 32.449219 36.585938 32.535156 36.652344 32.632813 L 36.976563 33.148438 L 36.664063 33.148438 L 36.417969 32.753906 C 36.347656 32.640625 36.285156 32.554688 36.238281 32.496094 C 36.191406 32.433594 36.148438 32.394531 36.113281 32.367188 C 36.078125 32.34375 36.039063 32.328125 36 32.320313 C 35.972656 32.3125 35.925781 32.308594 35.859375 32.308594 L 35.574219 32.308594 L 35.574219 33.148438 Z M 35.574219 32.09375 L 36.105469 32.09375 C 36.21875 32.09375 36.308594 32.082031 36.371094 32.058594 C 36.4375 32.035156 36.484375 31.996094 36.519531 31.945313 C 36.550781 31.894531 36.570313 31.835938 36.570313 31.777344 C 36.570313 31.6875 36.535156 31.613281 36.472656 31.554688 C 36.410156 31.5 36.308594 31.46875 36.167969 31.46875 L 35.574219 31.46875 Z M 38.625 33.148438 L 38.625 31.484375 L 38.011719 31.484375 L 38.011719 31.261719 L 39.496094 31.261719 L 39.496094 31.484375 L 38.875 31.484375 L 38.875 33.148438 Z M 39.882813 32.230469 C 39.882813 31.914063 39.96875 31.671875 40.132813 31.492188 C 40.300781 31.316406 40.519531 31.226563 40.78125 31.226563 C 40.953125 31.226563 41.109375 31.269531 41.25 31.351563 C 41.390625 31.4375 41.492188 31.550781 41.566406 31.699219 C 41.640625 31.847656 41.675781 32.019531 41.675781 32.207031 C 41.675781 32.398438 41.636719 32.570313 41.5625 32.71875 C 41.484375 32.871094 41.375 32.984375 41.234375 33.0625 C 41.09375 33.140625 40.945313 33.179688 40.78125 33.179688 C 40.601563 33.179688 40.445313 33.136719 40.304688 33.050781 C 40.167969 32.964844 40.0625 32.847656 39.992188 32.699219 C 39.917969 32.550781 39.882813 32.394531 39.882813 32.230469 Z M 40.140625 32.234375 C 40.140625 32.460938 40.203125 32.640625 40.320313 32.769531 C 40.441406 32.902344 40.597656 32.964844 40.777344 32.964844 C 40.964844 32.964844 41.121094 32.902344 41.238281 32.769531 C 41.359375 32.636719 41.421875 32.449219 41.421875 32.207031 C 41.421875 32.050781 41.394531 31.917969 41.34375 31.804688 C 41.292969 31.6875 41.21875 31.597656 41.117188 31.535156 C 41.019531 31.472656 40.90625 31.445313 40.78125 31.445313 C 40.605469 31.445313 40.457031 31.503906 40.328125 31.625 C 40.203125 31.746094 40.140625 31.949219 40.140625 32.234375 Z M 42.988281 33.148438 L 42.988281 31.261719 L 44.339844 31.261719 L 44.339844 31.484375 L 43.234375 31.484375 L 43.234375 32.0625 L 44.269531 32.0625 L 44.269531 32.28125 L 43.234375 32.28125 L 43.234375 32.925781 L 44.382813 32.925781 L 44.382813 33.148438 Z M 45.519531 33.148438 L 44.792969 31.261719 L 45.0625 31.261719 L 45.546875 32.632813 C 45.589844 32.742188 45.621094 32.84375 45.648438 32.941406 C 45.675781 32.835938 45.710938 32.734375 45.75 32.632813 L 46.253906 31.261719 L 46.507813 31.261719 L 45.773438 33.148438 Z M 46.992188 33.148438 L 46.992188 31.261719 L 48.347656 31.261719 L 48.347656 31.484375 L 47.242188 31.484375 L 47.242188 32.0625 L 48.277344 32.0625 L 48.277344 32.28125 L 47.242188 32.28125 L 47.242188 32.925781 L 48.390625 32.925781 L 48.390625 33.148438 Z M 48.996094 33.148438 L 48.996094 31.261719 L 49.824219 31.261719 C 49.992188 31.261719 50.121094 31.277344 50.207031 31.3125 C 50.292969 31.34375 50.363281 31.40625 50.414063 31.492188 C 50.46875 31.578125 50.492188 31.671875 50.492188 31.777344 C 50.492188 31.910156 50.449219 32.023438 50.363281 32.113281 C 50.277344 32.207031 50.144531 32.265625 49.964844 32.289063 C 50.03125 32.320313 50.082031 32.351563 50.113281 32.382813 C 50.1875 32.449219 50.253906 32.535156 50.320313 32.632813 L 50.648438 33.148438 L 50.335938 33.148438 L 50.085938 32.753906 C 50.015625 32.640625 49.953125 32.554688 49.90625 32.496094 C 49.859375 32.433594 49.816406 32.394531 49.78125 32.367188 C 49.746094 32.34375 49.707031 32.328125 49.667969 32.320313 C 49.640625 32.3125 49.59375 32.308594 49.53125 32.308594 L 49.242188 32.308594 L 49.242188 33.148438 Z M 49.242188 32.09375 L 49.777344 32.09375 C 49.890625 32.09375 49.976563 32.082031 50.042969 32.058594 C 50.105469 32.035156 50.15625 31.996094 50.1875 31.945313 C 50.21875 31.894531 50.238281 31.835938 50.238281 31.777344 C 50.238281 31.6875 50.207031 31.613281 50.140625 31.554688 C 50.078125 31.5 49.976563 31.46875 49.835938 31.46875 L 49.242188 31.46875 Z M 51.621094 33.148438 L 51.621094 32.347656 L 50.898438 31.261719 L 51.199219 31.261719 L 51.566406 31.828125 C 51.636719 31.9375 51.699219 32.042969 51.757813 32.148438 C 51.816406 32.050781 51.882813 31.9375 51.964844 31.816406 L 52.324219 31.261719 L 52.613281 31.261719 L 51.867188 32.347656 L 51.867188 33.148438 Z M 53.820313 33.148438 L 53.820313 31.261719 L 54.066406 31.261719 L 54.066406 33.148438 Z M 54.757813 33.148438 L 54.757813 31.261719 L 55.011719 31.261719 L 55.996094 32.742188 L 55.996094 31.261719 L 56.234375 31.261719 L 56.234375 33.148438 L 55.980469 33.148438 L 54.996094 31.664063 L 54.996094 33.148438 Z M 56.90625 33.148438 L 56.90625 31.261719 L 57.550781 31.261719 C 57.699219 31.261719 57.808594 31.269531 57.886719 31.289063 C 57.992188 31.3125 58.085938 31.359375 58.160156 31.421875 C 58.261719 31.507813 58.335938 31.613281 58.382813 31.746094 C 58.433594 31.875 58.457031 32.027344 58.457031 32.195313 C 58.457031 32.335938 58.441406 32.464844 58.40625 32.574219 C 58.375 32.6875 58.332031 32.777344 58.277344 32.847656 C 58.226563 32.921875 58.171875 32.980469 58.109375 33.019531 C 58.046875 33.0625 57.972656 33.09375 57.886719 33.117188 C 57.796875 33.136719 57.695313 33.148438 57.585938 33.148438 Z M 57.15625 32.925781 L 57.554688 32.925781 C 57.679688 32.925781 57.773438 32.914063 57.847656 32.890625 C 57.914063 32.867188 57.972656 32.835938 58.015625 32.792969 C 58.074219 32.734375 58.117188 32.652344 58.152344 32.554688 C 58.183594 32.453125 58.203125 32.332031 58.203125 32.191406 C 58.203125 31.992188 58.167969 31.839844 58.105469 31.734375 C 58.039063 31.628906 57.960938 31.558594 57.871094 31.519531 C 57.804688 31.496094 57.695313 31.484375 57.550781 31.484375 L 57.15625 31.484375 Z M 59.097656 33.148438 L 59.097656 31.261719 L 59.34375 31.261719 L 59.34375 33.148438 Z M 59.832031 33.148438 L 60.554688 31.261719 L 60.820313 31.261719 L 61.585938 33.148438 L 61.304688 33.148438 L 61.085938 32.574219 L 60.300781 32.574219 L 60.097656 33.148438 Z M 60.375 32.371094 L 61.011719 32.371094 L 60.8125 31.851563 C 60.753906 31.691406 60.710938 31.5625 60.679688 31.460938 C 60.65625 31.582031 60.625 31.699219 60.578125 31.820313 Z M 62.039063 33.148438 L 62.039063 31.261719 L 62.292969 31.261719 L 63.277344 32.742188 L 63.277344 31.261719 L 63.519531 31.261719 L 63.519531 33.148438 L 63.261719 33.148438 L 62.277344 31.664063 L 62.277344 33.148438 L 62.039063 33.148438 "/>
<path style=" stroke:none;fill-rule:evenodd;fill:rgb(13.699341%,12.199402%,12.5%);fill-opacity:1;" d="M 20.269531 25.355469 L 20.269531 24.257813 C 18.5 23.785156 17.628906 25.300781 18.671875 26.394531 C 19.523438 27.054688 18.863281 27.511719 18.199219 27.207031 L 18.199219 28.296875 C 20.25 28.78125 20.816406 26.851563 19.878906 26.078125 C 19.175781 25.585938 19.277344 24.808594 20.269531 25.355469 "/>
<path style=" stroke:none;fill-rule:evenodd;fill:rgb(13.699341%,12.199402%,12.5%);fill-opacity:1;" d="M 20.621094 25.109375 L 21.59375 24.539063 L 21.59375 25.402344 L 21.960938 25.402344 L 21.960938 26.261719 L 21.578125 26.261719 L 21.578125 27.058594 C 21.574219 27.261719 21.726563 27.34375 22.027344 27.320313 L 21.804688 28.296875 C 21.109375 28.394531 20.675781 28.265625 20.652344 27.710938 L 20.652344 26.257813 L 20.4375 26.257813 L 20.4375 25.394531 L 20.625 25.386719 L 20.621094 25.109375 "/>
<path style=" stroke:none;fill-rule:evenodd;fill:rgb(13.699341%,12.199402%,12.5%);fill-opacity:1;" d="M 22.527344 25.421875 L 22.488281 26.105469 L 23.421875 26.105469 C 23.617188 26.164063 23.671875 26.304688 23.636719 26.5 C 21.339844 25.800781 21.996094 29.207031 23.683594 28.132813 L 23.683594 28.324219 L 24.53125 28.324219 L 24.53125 26.109375 C 24.464844 25.648438 24.167969 25.453125 23.734375 25.410156 Z M 23.367188 26.949219 C 23.550781 26.949219 23.703125 27.101563 23.703125 27.289063 C 23.703125 27.472656 23.550781 27.625 23.367188 27.625 C 23.179688 27.625 23.027344 27.472656 23.027344 27.289063 C 23.027344 27.101563 23.179688 26.949219 23.367188 26.949219 "/>
<path style=" stroke:none;fill-rule:evenodd;fill:rgb(13.699341%,12.199402%,12.5%);fill-opacity:1;" d="M 27.699219 27.457031 L 29.21875 26.359375 C 28.480469 24.988281 26.8125 25.1875 26.4375 26.535156 C 26.09375 27.773438 27.53125 28.953125 29.023438 28.054688 L 28.980469 27.121094 C 28.570313 27.460938 28.152344 27.648438 27.699219 27.457031 Z M 27.285156 26.929688 L 28.171875 26.265625 C 27.800781 26.046875 27.226563 26.199219 27.285156 26.929688 "/>
<path style=" stroke:none;fill-rule:evenodd;fill:rgb(13.699341%,12.199402%,12.5%);fill-opacity:1;" d="M 24.941406 25.109375 L 25.914063 24.539063 L 25.914063 25.402344 L 26.28125 25.402344 L 26.28125 26.261719 L 25.898438 26.261719 L 25.898438 27.058594 C 25.894531 27.261719 26.046875 27.34375 26.34375 27.320313 L 26.125 28.296875 C 25.425781 28.394531 24.996094 28.265625 24.96875 27.710938 L 24.96875 26.257813 L 24.753906 26.257813 L 24.753906 25.394531 L 24.945313 25.386719 L 24.941406 25.109375 "/>
<path style=" stroke:none;fill-rule:evenodd;fill:rgb(13.699341%,12.199402%,12.5%);fill-opacity:1;" d="M 35.035156 25.453125 L 34.996094 26.128906 L 35.929688 26.128906 C 36.125 26.1875 36.179688 26.328125 36.144531 26.519531 C 33.847656 25.832031 34.503906 29.195313 36.195313 28.136719 L 36.195313 28.324219 L 37.039063 28.324219 L 37.039063 26.136719 C 36.972656 25.679688 36.675781 25.484375 36.242188 25.441406 Z M 35.875 26.964844 C 36.058594 26.964844 36.210938 27.113281 36.210938 27.300781 C 36.210938 27.484375 36.058594 27.636719 35.875 27.636719 C 35.6875 27.636719 35.535156 27.484375 35.535156 27.300781 C 35.535156 27.113281 35.6875 26.964844 35.875 26.964844 "/>
<path style=" stroke:none;fill-rule:evenodd;fill:rgb(13.699341%,12.199402%,12.5%);fill-opacity:1;" d="M 31.703125 24.328125 L 33.351563 24.328125 C 34.515625 24.300781 34.933594 25.8125 33.898438 26.265625 C 34.691406 26.621094 34.683594 27.875 33.714844 28.265625 C 33.460938 28.363281 33.269531 28.335938 33.003906 28.335938 L 31.648438 28.335938 Z M 32.769531 25.191406 L 33.097656 25.191406 C 33.28125 25.191406 33.433594 25.34375 33.433594 25.53125 C 33.433594 25.714844 33.28125 25.867188 33.097656 25.867188 L 32.769531 25.867188 Z M 32.769531 26.6875 L 33.097656 26.6875 C 33.28125 26.6875 33.433594 26.851563 33.433594 27.054688 C 33.433594 27.253906 33.28125 27.417969 33.097656 27.417969 L 32.769531 27.417969 L 32.769531 26.6875 "/>
<path style=" stroke:none;fill-rule:evenodd;fill:rgb(13.699341%,12.199402%,12.5%);fill-opacity:1;" d="M 37.449219 25.46875 L 37.449219 28.351563 L 38.421875 28.351563 L 38.421875 26.675781 C 38.421875 26.265625 39.023438 26.222656 39.023438 26.675781 L 39.023438 28.339844 L 39.996094 28.339844 L 39.996094 26.285156 C 39.867188 25.378906 38.816406 25.230469 38.417969 25.761719 L 38.417969 25.445313 L 37.449219 25.46875 "/>
<path style=" stroke:none;fill-rule:evenodd;fill:rgb(13.699341%,12.199402%,12.5%);fill-opacity:1;" d="M 40.289063 24.34375 L 41.246094 24.34375 L 41.246094 26.734375 L 41.914063 25.472656 L 42.929688 25.472656 L 42.152344 26.824219 L 43.011719 28.382813 L 42.039063 28.382813 L 41.246094 26.953125 L 41.246094 28.371094 L 40.289063 28.371094 L 40.289063 24.34375 "/>
<path style=" stroke:none;fill-rule:evenodd;fill:rgb(13.699341%,12.199402%,12.5%);fill-opacity:1;" d="M 46.726563 25.417969 C 47.554688 25.417969 48.226563 26.089844 48.226563 26.921875 C 48.226563 27.75 47.554688 28.421875 46.726563 28.421875 C 45.898438 28.421875 45.222656 27.75 45.222656 26.921875 C 45.222656 26.089844 45.898438 25.417969 46.726563 25.417969 Z M 46.726563 26.402344 C 47.011719 26.402344 47.246094 26.632813 47.246094 26.921875 C 47.246094 27.207031 47.011719 27.441406 46.726563 27.441406 C 46.4375 27.441406 46.207031 27.207031 46.207031 26.921875 C 46.207031 26.632813 46.4375 26.402344 46.726563 26.402344 "/>
<path style=" stroke:none;fill-rule:evenodd;fill:rgb(13.699341%,12.199402%,12.5%);fill-opacity:1;" d="M 48.535156 28.378906 L 49.523438 28.378906 L 49.523438 25.515625 C 49.523438 25.324219 49.628906 25.273438 49.902344 25.285156 L 49.902344 24.355469 C 49.050781 24.335938 48.539063 24.601563 48.542969 25.300781 L 48.535156 28.378906 "/>
<path style=" stroke:none;fill-rule:evenodd;fill:rgb(13.699341%,12.199402%,12.5%);fill-opacity:1;" d="M 48.304688 25.492188 L 49.910156 25.492188 L 49.910156 26.347656 L 48.304688 26.347656 L 48.304688 25.492188 "/>
<path style=" stroke:none;fill-rule:evenodd;fill:rgb(13.699341%,12.199402%,12.5%);fill-opacity:1;" d="M 52.417969 24.390625 L 53.398438 24.390625 L 53.398438 28.347656 L 52.417969 28.347656 L 52.417969 24.390625 "/>
<path style=" stroke:none;fill-rule:evenodd;fill:rgb(13.699341%,12.199402%,12.5%);fill-opacity:1;" d="M 60.03125 25.550781 L 61.011719 25.550781 L 61.011719 28.402344 L 60.03125 28.402344 Z M 60.03125 24.359375 L 61.011719 24.359375 L 61.011719 25.367188 L 60.03125 25.367188 L 60.03125 24.359375 "/>
<path style=" stroke:none;fill-rule:evenodd;fill:rgb(13.699341%,12.199402%,12.5%);fill-opacity:1;" d="M 58.742188 24.390625 L 59.722656 24.390625 L 59.722656 28.402344 L 58.742188 28.402344 L 58.742188 28.304688 C 58.5625 28.378906 58.363281 28.421875 58.152344 28.421875 C 57.324219 28.421875 56.652344 27.75 56.652344 26.921875 C 56.652344 26.089844 57.324219 25.417969 58.152344 25.417969 C 58.363281 25.417969 58.5625 25.460938 58.742188 25.539063 Z M 58.152344 26.402344 C 58.441406 26.402344 58.671875 26.632813 58.671875 26.921875 C 58.671875 27.207031 58.441406 27.441406 58.152344 27.441406 C 57.867188 27.441406 57.636719 27.207031 57.636719 26.921875 C 57.636719 26.632813 57.867188 26.402344 58.152344 26.402344 "/>
<path style=" stroke:none;fill-rule:evenodd;fill:rgb(13.699341%,12.199402%,12.5%);fill-opacity:1;" d="M 61.59375 25.511719 L 61.554688 26.1875 L 62.488281 26.1875 C 62.683594 26.246094 62.738281 26.386719 62.703125 26.578125 C 60.40625 25.886719 61.0625 29.253906 62.753906 28.195313 L 62.753906 28.378906 L 63.597656 28.378906 L 63.597656 26.195313 C 63.53125 25.738281 63.234375 25.542969 62.800781 25.5 Z M 62.433594 27.023438 C 62.617188 27.023438 62.769531 27.171875 62.769531 27.355469 C 62.769531 27.542969 62.617188 27.691406 62.433594 27.691406 C 62.246094 27.691406 62.09375 27.542969 62.09375 27.355469 C 62.09375 27.171875 62.246094 27.023438 62.433594 27.023438 "/>
<path style=" stroke:none;fill-rule:evenodd;fill:rgb(13.699341%,12.199402%,12.5%);fill-opacity:1;" d="M 18.140625 29.632813 L 63.578125 29.632813 L 63.578125 29.851563 L 18.140625 29.851563 L 18.140625 29.632813 "/>
<path style=" stroke:none;fill-rule:evenodd;fill:rgb(0%,68.199158%,93.699646%);fill-opacity:1;" d="M 65.679688 20.648438 L 69.699219 20.648438 L 69.699219 37.492188 L 65.679688 37.492188 L 65.679688 20.648438 "/>
<path style=" stroke:none;fill-rule:evenodd;fill:rgb(13.699341%,12.199402%,12.5%);fill-opacity:1;" d="M 53.882813 25.539063 L 53.882813 28.421875 L 54.859375 28.421875 L 54.859375 26.746094 C 54.859375 26.339844 55.460938 26.292969 55.460938 26.746094 L 55.460938 28.410156 L 56.433594 28.410156 L 56.433594 26.355469 C 56.304688 25.449219 55.25 25.304688 54.855469 25.835938 L 54.855469 25.519531 L 53.882813 25.539063 "/>
</g>
</svg>
